PathFileType	4	(X/Y/Z)	/Users/itak/Documents/Research/Walk-IL/dataset/trc/00122_00007.trc
DataRate	CameraRate	NumFrames	NumMarkers	Units	OrigDataRate	OrigDataStartFrame	OrigNumFrames
100.000000	100.000000	4	53	mm	100.000000	181	727
Frame#	Time	RPSI			LPSI			L3			STRN			T10			C7			CLAV			RBAK			LBAK			LSHO			LUPA			LAEL			LAOL			LWTS			LWPS			LFRA			LIFD			LHPS			LHTS			RSHO			RUPA			RAEL			RAOL			RWTS			RWPS			RFRA			RIFD			RHTS			RHPS			RBHD			LFHD			RFHD			LBHD			LHIP			RHIP			RASI			LASI			LKNE			LTHI			LANK			LTIP			LTOE			LMT1			LMT5			LHEE			RKNE			RTHI			RANK			RTIP			RTOE			RMT1			RMT5			RHEE			
		X1	Y1	Z1	X2	Y2	Z2	X3	Y3	Z3	X4	Y4	Z4	X5	Y5	Z5	X6	Y6	Z6	X7	Y7	Z7	X8	Y8	Z8	X9	Y9	Z9	X10	Y10	Z10	X11	Y11	Z11	X12	Y12	Z12	X13	Y13	Z13	X14	Y14	Z14	X15	Y15	Z15	X16	Y16	Z16	X17	Y17	Z17	X18	Y18	Z18	X19	Y19	Z19	X20	Y20	Z20	X21	Y21	Z21	X22	Y22	Z22	X23	Y23	Z23	X24	Y24	Z24	X25	Y25	Z25	X26	Y26	Z26	X27	Y27	Z27	X28	Y28	Z28	X29	Y29	Z29	X30	Y30	Z30	X31	Y31	Z31	X32	Y32	Z32	X33	Y33	Z33	X34	Y34	Z34	X35	Y35	Z35	X36	Y36	Z36	X37	Y37	Z37	X38	Y38	Z38	X39	Y39	Z39	X40	Y40	Z40	X41	Y41	Z41	X42	Y42	Z42	X43	Y43	Z43	X44	Y44	Z44	X45	Y45	Z45	X46	Y46	Z46	X47	Y47	Z47	X48	Y48	Z48	X49	Y49	Z49	X50	Y50	Z50	X51	Y51	Z51	X52	Y52	Z52	X53	Y53	Z53	

182	1.81	708.222900390625	1097.048217773438	852.8672485351562	592.6114501953125	1094.248168945312	777.8020629882812	640.4312744140625	1129.808959960938	815.9112548828125	759.0568237304688	1328.794799804688	630.2694091796875	610.5433959960938	1282.573852539062	840.7457885742188	609.7338256835938	1572.385620117188	789.7405395507812	731.9981079101562	1463.883666992188	652.9327392578125	653.6383666992188	1393.441528320312	891.8602294921875	523.8165893554688	1547.135620117188	733.21044921875	525.2949829101562	1529.807739257812	624.914306640625	470.4840087890625	1394.89697265625	590.7042236328125	499.751708984375	1181.54833984375	535.0588989257812	500.8974304199219	1154.100830078125	620.3978271484375	667.8174438476562	980.9356079101562	442.2680969238281	604.6924438476562	924.21923828125	472.189208984375	537.7149047851562	1076.7333984375	498.5021057128906	752.2276611328125	811.0674438476562	402.8253173828125	646.8640747070312	866.5506591796875	434.3667602539062	697.9622802734375	904.9144897460938	402.8359985351562	788.326171875	1563.656127929688	854.6873168945312	829.050048828125	1495.146362304688	912.6055908203125	844.8485717773438	1207.109130859375	963.5938110351562	767.5001831054688	1196.105590820312	903.6173095703125	938.802734375	954.1278076171875	879.7855834960938	909.853515625	946.4705810546875	956.5548095703125	874.2594604492188	1134.55859375	965.1210327148438	943.5946044921875	758.1282958984375	872.9337768554688	964.6309204101562	844.6659545898438	875.5095825195312	939.4380493164062	845.2261962890625	945.0303344726562	717.7535400390625	1764.922973632812	753.1610717773438	627.3705444335938	1768.031005859375	551.4278564453125	750.9287719726562	1797.460571289062	579.6777954101562	587.7191772460938	1741.034545898438	728.4453125	547.2617797851562	1001.799987792969	641.29443359375	882.1902465820312	1007.039184570312	802.7432250976562	872.753662109375	1077.614868164062	707.5496215820312	643.5772705078125	1064.218872070312	570.130859375	625.0100708007812	501.8999938964844	729.1636352539062	580.6705322265625	646.10986328125	697.9295654296875	543.5372314453125	46.22289276123047	962.6423950195312	532.2797241210938	276.792724609375	853.3191528320312	766.4415283203125	37.00315475463867	885.119384765625	716.7022705078125	50.06390762329102	955.5502319335938	635.6437377929688	41.04074096679688	874.5292358398438	521.44287109375	66.90067291259766	1051.163940429688	949.9851684570312	550.9841918945312	645.3973999023438	929.7141723632812	810.5401000976562	738.2076416015625	1012.1123046875	35.80015563964844	542.0266723632812	981.0723876953125	421.8478698730469	628.210693359375	1035.076416015625	146.3060760498047	341.7344055175781	976.293212890625	116.8521270751953	370.9588623046875	1073.4765625	81.37677764892578	432.5251770019531	946.9154663085938	22.81921005249023	579.724853515625	
183	1.82	715.9996337890625	1095.831176757812	844.372314453125	599.4454956054688	1093.459716796875	770.825927734375	647.731689453125	1128.859741210938	808.1661376953125	764.117919921875	1327.893676757812	621.5930786132812	617.5875854492188	1281.484497070312	833.3527221679688	615.9173583984375	1571.390014648438	782.4942016601562	737.149169921875	1462.929443359375	644.6182861328125	660.8181762695312	1392.202880859375	884.0874633789062	529.593017578125	1546.066528320312	726.538330078125	530.221923828125	1528.717407226562	618.2891235351562	474.8483581542969	1393.786499023438	584.6438598632812	502.9881286621094	1180.043579101562	529.8548583984375	504.727294921875	1153.199462890625	615.3349609375	668.564208984375	977.0086059570312	437.6036987304688	605.1295166015625	921.2041015625	468.4788208007812	539.8603515625	1074.615356445312	493.8711547851562	751.0614624023438	805.9196166992188	399.2246398925781	646.5755615234375	862.7396850585938	430.9670715332031	697.7373657226562	900.3265380859375	398.6923217773438	795.0219116210938	1562.582885742188	846.0466918945312	836.1942138671875	1494.013305664062	903.5896606445312	853.0165405273438	1205.999877929688	954.1972045898438	775.394287109375	1194.802490234375	894.640625	947.2481079101562	953.44140625	869.3585815429688	918.7823486328125	945.5525512695312	946.2774658203125	882.6712646484375	1133.509399414062	955.411376953125	952.7839965820312	757.50244140625	862.1497802734375	973.4884643554688	844.1066284179688	864.74755859375	948.6736450195312	844.4442138671875	934.419189453125	723.9176025390625	1763.862182617188	745.1083984375	631.6434936523438	1767.212036132812	544.1918334960938	755.5123901367188	1796.477783203125	571.328369140625	593.59619140625	1740.18994140625	721.51806640625	552.9483642578125	1000.773254394531	634.769287109375	889.1116943359375	1005.965576171875	792.2206420898438	878.8939208984375	1076.77880859375	697.2981567382812	648.3294067382812	1063.2685546875	561.9502563476562	628.9391479492188	500.9476318359375	722.9931640625	585.154296875	645.4119873046875	691.7926025390625	544.0823974609375	48.10978698730469	962.5941772460938	534.4564208984375	277.9881896972656	850.6163330078125	766.6844482421875	36.69271469116211	884.95166015625	717.0210571289062	50.73761749267578	954.9920654296875	635.9237060546875	41.24913024902344	874.36328125	522.3856201171875	70.68485260009766	1050.996704101562	953.2396240234375	549.6619873046875	633.1621704101562	935.7498168945312	809.4454956054688	726.5446166992188	1010.546936035156	33.60539627075195	535.0753173828125	982.91552734375	419.7867126464844	616.7164306640625	1030.685791015625	140.4983062744141	332.6938781738281	972.3668212890625	111.4168243408203	363.1808776855469	1070.2939453125	77.15450286865234	424.1371459960938	945.742431640625	21.35737800598145	573.6815795898438	
184	1.83	723.8673706054688	1094.763427734375	835.6112060546875	606.4030151367188	1092.709228515625	763.7026977539062	655.1650390625	1128.005493164062	800.215576171875	769.2293090820312	1327.145385742188	612.7582397460938	624.7152099609375	1280.493896484375	825.7835693359375	622.106689453125	1570.52978515625	775.1437377929688	742.3431396484375	1462.122924804688	636.188232421875	668.032470703125	1391.046020507812	876.162109375	535.406005859375	1545.109619140625	719.7362060546875	535.2111206054688	1527.733276367188	611.5573120117188	479.2688903808594	1392.791381835938	578.4465942382812	506.215087890625	1178.649047851562	524.5551147460938	508.4966430664062	1152.451782226562	610.1604614257812	669.002685546875	972.905029296875	433.0948181152344	605.193115234375	918.1660766601562	464.9527587890625	541.877197265625	1072.55615234375	489.2408447265625	749.319091796875	800.44482421875	396.0222473144531	645.8303833007812	858.803466796875	427.8634338378906	697.0687255859375	895.4775390625	394.804931640625	801.7269287109375	1561.619995117188	837.3303833007812	843.3482666015625	1492.990112304688	894.484375	861.1687622070312	1204.989501953125	944.6537475585938	783.260498046875	1193.614135742188	885.5029907226562	955.6573486328125	952.8826904296875	858.7310180664062	927.666748046875	944.7323608398438	935.7857666015625	891.0393676757812	1132.554321289062	945.5516357421875	961.9436645507812	757.0126953125	851.0777587890625	982.31298828125	843.6807250976562	853.7415161132812	957.8566284179688	843.7631225585938	923.5581665039062	730.0775146484375	1762.946044921875	736.9793701171875	635.9008178710938	1766.559814453125	536.9068603515625	760.065673828125	1795.677368164062	562.9252319335938	599.48486328125	1739.470336914062	714.5308837890625	558.8462524414062	999.787353515625	628.21337890625	896.0994873046875	1005.089111328125	781.3975830078125	885.0715942382812	1076.117919921875	686.785400390625	653.0318603515625	1062.500854492188	553.6643676757812	632.9736328125	500.0221862792969	716.4495239257812	589.7313232421875	644.7610473632812	685.4118041992188	544.6548461914062	50.23557281494141	962.3479614257812	536.7094116210938	279.3717346191406	847.644775390625	766.92138671875	36.41833877563477	884.7779541015625	717.3226928710938	51.5001335144043	954.3550415039062	636.2359619140625	41.46588134765625	874.0968017578125	523.3338012695312	74.83111572265625	1050.568725585938	956.4039916992188	548.5367431640625	620.6152954101562	941.7105102539062	808.5814819335938	714.373291015625	1008.854431152344	31.5449333190918	529.8555908203125	984.630859375	417.82861328125	605.2435302734375	1025.582153320312	133.2006225585938	324.7027282714844	967.8502807617188	104.6698608398438	356.72216796875	1066.645263671875	72.20957946777344	417.1449279785156	944.4780883789062	20.28973388671875	569.4744873046875	
185	1.84	731.80224609375	1093.91357421875	826.5484008789062	613.461181640625	1092.005249023438	756.3976440429688	662.725830078125	1127.2890625	792.0419921875	774.3770141601562	1326.589965820312	603.7395629882812	631.9309692382812	1279.635864257812	818.0299682617188	628.3158569335938	1569.837158203125	767.7047729492188	747.5753173828125	1461.503051757812	627.6389770507812	675.2876586914062	1390.002807617188	868.0857543945312	541.259033203125	1544.299682617188	712.8339233398438	540.2451782226562	1526.889770507812	604.733154296875	483.7437744140625	1391.936767578125	572.1476440429688	509.4344482421875	1177.397705078125	519.1836547851562	512.1829223632812	1151.890258789062	604.8966064453125	669.1219482421875	968.6864013671875	428.7544860839844	604.8862915039062	915.1676635742188	461.6341857910156	543.7651977539062	1070.597778320312	484.6365051269531	746.9794921875	794.7267456054688	393.2110595703125	644.5999145507812	854.8179321289062	425.0617065429688	695.9247436523438	890.4358520507812	391.1811828613281	808.4488525390625	1560.795043945312	828.5363159179688	850.521240234375	1492.098876953125	885.2832641601562	869.3138427734375	1204.098510742188	934.9500732421875	791.1005859375	1192.564575195312	876.1904296875	964.0182495117188	952.4623413085938	847.8998413085938	936.4977416992188	944.028076171875	925.081787109375	899.3712768554688	1131.715087890625	935.5287475585938	971.0385131835938	756.6673583984375	839.7374877929688	991.075927734375	843.39453125	842.50048828125	966.9703369140625	843.2012939453125	912.456298828125	736.2208862304688	1762.225219726562	728.7623901367188	640.1239624023438	1766.096313476562	529.5702514648438	764.5748901367188	1795.087280273438	554.4563598632812	605.379638671875	1738.913818359375	707.4869384765625	564.9210205078125	998.8605346679688	621.6190795898438	903.1554565429688	1004.498901367188	770.2694091796875	891.2496337890625	1075.68408203125	675.9879760742188	657.6388549804688	1061.955688476562	545.3399658203125	637.155517578125	499.1266784667969	709.476806640625	594.421875	644.1683959960938	678.74560546875	545.2612915039062	52.62371063232422	961.87890625	539.078369140625	280.960205078125	844.35107421875	767.1455078125	36.184814453125	884.5911254882812	717.5943603515625	52.34923553466797	953.6241455078125	636.5648803710938	41.68423461914062	873.7223510742188	524.30224609375	79.39575958251953	1049.82470703125	959.505859375	547.6873779296875	607.9110717773438	947.541015625	808.0028686523438	701.761474609375	1007.356994628906	29.79267883300781	525.9337158203125	986.3584594726562	416.1331481933594	593.8140258789062	1019.942932128906	124.7658538818359	317.4586181640625	962.9521484375	96.96942138671875	351.2951965332031	1062.80078125	66.84546661376953	411.1329650878906	943.4659423828125	19.78896522521973	566.6838989257812	
